<svg xmlns="http://www.w3.org/2000/svg" width="1500" height="500" viewBox="0 0 1500 500">
<defs>
    <filter id="glowG" x="-40%" y="-40%" width="180%" height="180%"><feGaussianBlur stdDeviation="6" result="b"/><feMerge><feMergeNode in="b"/><feMergeNode in="SourceGraphic"/></feMerge></filter>
    <filter id="glowSoft" x="-60%" y="-60%" width="220%" height="220%"><feGaussianBlur stdDeviation="14" result="b"/><feMerge><feMergeNode in="b"/><feMergeNode in="SourceGraphic"/></feMerge></filter>
    <linearGradient id="areaG" x1="0" y1="0" x2="0" y2="1">
      <stop offset="0%" stop-color="#21e88a" stop-opacity="0.30"/>
      <stop offset="100%" stop-color="#21e88a" stop-opacity="0"/>
    </linearGradient>
    <radialGradient id="vig" cx="50%" cy="42%" r="75%">
      <stop offset="55%" stop-color="#000" stop-opacity="0"/>
      <stop offset="100%" stop-color="#000" stop-opacity="0.55"/>
    </radialGradient>
    <linearGradient id="wm" x1="0" y1="0" x2="0" y2="1">
      <stop offset="0%" stop-color="#ffffff"/>
      <stop offset="100%" stop-color="#46e8ff"/>
    </linearGradient>
  </defs>
<rect width="1500" height="500" fill="#05070d"/>
<g opacity="0.55"><line x1="0" y1="0" x2="0" y2="500" stroke="#121b30" stroke-width="1"/><line x1="50" y1="0" x2="50" y2="500" stroke="#121b30" stroke-width="1"/><line x1="100" y1="0" x2="100" y2="500" stroke="#121b30" stroke-width="1"/><line x1="150" y1="0" x2="150" y2="500" stroke="#121b30" stroke-width="1"/><line x1="200" y1="0" x2="200" y2="500" stroke="#121b30" stroke-width="1"/><line x1="250" y1="0" x2="250" y2="500" stroke="#121b30" stroke-width="1"/><line x1="300" y1="0" x2="300" y2="500" stroke="#121b30" stroke-width="1"/><line x1="350" y1="0" x2="350" y2="500" stroke="#121b30" stroke-width="1"/><line x1="400" y1="0" x2="400" y2="500" stroke="#121b30" stroke-width="1"/><line x1="450" y1="0" x2="450" y2="500" stroke="#121b30" stroke-width="1"/><line x1="500" y1="0" x2="500" y2="500" stroke="#121b30" stroke-width="1"/><line x1="550" y1="0" x2="550" y2="500" stroke="#121b30" stroke-width="1"/><line x1="600" y1="0" x2="600" y2="500" stroke="#121b30" stroke-width="1"/><line x1="650" y1="0" x2="650" y2="500" stroke="#121b30" stroke-width="1"/><line x1="700" y1="0" x2="700" y2="500" stroke="#121b30" stroke-width="1"/><line x1="750" y1="0" x2="750" y2="500" stroke="#121b30" stroke-width="1"/><line x1="800" y1="0" x2="800" y2="500" stroke="#121b30" stroke-width="1"/><line x1="850" y1="0" x2="850" y2="500" stroke="#121b30" stroke-width="1"/><line x1="900" y1="0" x2="900" y2="500" stroke="#121b30" stroke-width="1"/><line x1="950" y1="0" x2="950" y2="500" stroke="#121b30" stroke-width="1"/><line x1="1000" y1="0" x2="1000" y2="500" stroke="#121b30" stroke-width="1"/><line x1="1050" y1="0" x2="1050" y2="500" stroke="#121b30" stroke-width="1"/><line x1="1100" y1="0" x2="1100" y2="500" stroke="#121b30" stroke-width="1"/><line x1="1150" y1="0" x2="1150" y2="500" stroke="#121b30" stroke-width="1"/><line x1="1200" y1="0" x2="1200" y2="500" stroke="#121b30" stroke-width="1"/><line x1="1250" y1="0" x2="1250" y2="500" stroke="#121b30" stroke-width="1"/><line x1="1300" y1="0" x2="1300" y2="500" stroke="#121b30" stroke-width="1"/><line x1="1350" y1="0" x2="1350" y2="500" stroke="#121b30" stroke-width="1"/><line x1="1400" y1="0" x2="1400" y2="500" stroke="#121b30" stroke-width="1"/><line x1="1450" y1="0" x2="1450" y2="500" stroke="#121b30" stroke-width="1"/><line x1="1500" y1="0" x2="1500" y2="500" stroke="#121b30" stroke-width="1"/><line x1="0" y1="0" x2="1500" y2="0" stroke="#121b30" stroke-width="1"/><line x1="0" y1="50" x2="1500" y2="50" stroke="#121b30" stroke-width="1"/><line x1="0" y1="100" x2="1500" y2="100" stroke="#121b30" stroke-width="1"/><line x1="0" y1="150" x2="1500" y2="150" stroke="#121b30" stroke-width="1"/><line x1="0" y1="200" x2="1500" y2="200" stroke="#121b30" stroke-width="1"/><line x1="0" y1="250" x2="1500" y2="250" stroke="#121b30" stroke-width="1"/><line x1="0" y1="300" x2="1500" y2="300" stroke="#121b30" stroke-width="1"/><line x1="0" y1="350" x2="1500" y2="350" stroke="#121b30" stroke-width="1"/><line x1="0" y1="400" x2="1500" y2="400" stroke="#121b30" stroke-width="1"/><line x1="0" y1="450" x2="1500" y2="450" stroke="#121b30" stroke-width="1"/><line x1="0" y1="500" x2="1500" y2="500" stroke="#121b30" stroke-width="1"/></g>
<g><line x1="50.3" y1="372.9" x2="50.3" y2="389.7" stroke="#21e88a" stroke-width="1.5" opacity="0.30"/><rect x="46.3" y="379.3" width="8" height="4.0" fill="#21e88a" opacity="0.28"/><line x1="100.7" y1="362.3" x2="100.7" y2="379.1" stroke="#21e88a" stroke-width="1.5" opacity="0.30"/><rect x="96.7" y="368.7" width="8" height="4.0" fill="#21e88a" opacity="0.28"/><line x1="151.0" y1="354.0" x2="151.0" y2="380.0" stroke="#ff3b5c" stroke-width="1.5" opacity="0.30"/><rect x="147.0" y="363.9" width="8" height="6.2" fill="#ff3b5c" opacity="0.28"/><line x1="201.3" y1="351.1" x2="201.3" y2="373.7" stroke="#21e88a" stroke-width="1.5" opacity="0.30"/><rect x="197.3" y="359.7" width="8" height="5.4" fill="#21e88a" opacity="0.28"/><line x1="251.7" y1="342.9" x2="251.7" y2="384.1" stroke="#ff3b5c" stroke-width="1.5" opacity="0.30"/><rect x="247.7" y="358.6" width="8" height="9.8" fill="#ff3b5c" opacity="0.28"/><line x1="302.0" y1="322.6" x2="302.0" y2="393.1" stroke="#21e88a" stroke-width="1.5" opacity="0.30"/><rect x="298.0" y="348.6" width="8" height="18.5" fill="#21e88a" opacity="0.28"/><line x1="352.3" y1="299.6" x2="352.3" y2="371.6" stroke="#21e88a" stroke-width="1.5" opacity="0.30"/><rect x="348.3" y="325.6" width="8" height="20.0" fill="#21e88a" opacity="0.28"/><line x1="402.7" y1="302.1" x2="402.7" y2="327.3" stroke="#21e88a" stroke-width="1.5" opacity="0.30"/><rect x="398.7" y="311.7" width="8" height="6.0" fill="#21e88a" opacity="0.28"/><line x1="453.0" y1="262.9" x2="453.0" y2="332.1" stroke="#21e88a" stroke-width="1.5" opacity="0.30"/><rect x="449.0" y="288.9" width="8" height="17.2" fill="#21e88a" opacity="0.28"/><line x1="503.4" y1="277.2" x2="503.4" y2="294.0" stroke="#21e88a" stroke-width="1.5" opacity="0.30"/><rect x="499.4" y="283.6" width="8" height="4.0" fill="#21e88a" opacity="0.28"/><line x1="553.7" y1="231.0" x2="553.7" y2="301.0" stroke="#21e88a" stroke-width="1.5" opacity="0.30"/><rect x="549.7" y="257.0" width="8" height="18.0" fill="#21e88a" opacity="0.28"/><line x1="604.0" y1="212.7" x2="604.0" y2="283.3" stroke="#21e88a" stroke-width="1.5" opacity="0.30"/><rect x="600.0" y="238.7" width="8" height="18.6" fill="#21e88a" opacity="0.28"/><line x1="654.4" y1="220.4" x2="654.4" y2="244.6" stroke="#21e88a" stroke-width="1.5" opacity="0.30"/><rect x="650.4" y="229.6" width="8" height="5.7" fill="#21e88a" opacity="0.28"/><line x1="704.7" y1="185.6" x2="704.7" y2="245.6" stroke="#21e88a" stroke-width="1.5" opacity="0.30"/><rect x="700.7" y="208.5" width="8" height="14.3" fill="#21e88a" opacity="0.28"/><line x1="755.0" y1="190.8" x2="755.0" y2="211.0" stroke="#21e88a" stroke-width="1.5" opacity="0.30"/><rect x="751.0" y="198.5" width="8" height="4.8" fill="#21e88a" opacity="0.28"/><line x1="805.4" y1="190.9" x2="805.4" y2="210.3" stroke="#ff3b5c" stroke-width="1.5" opacity="0.30"/><rect x="801.4" y="198.3" width="8" height="4.6" fill="#ff3b5c" opacity="0.28"/><line x1="855.7" y1="180.6" x2="855.7" y2="209.5" stroke="#21e88a" stroke-width="1.5" opacity="0.30"/><rect x="851.7" y="191.6" width="8" height="6.9" fill="#21e88a" opacity="0.28"/><line x1="906.0" y1="172.6" x2="906.0" y2="189.4" stroke="#21e88a" stroke-width="1.5" opacity="0.30"/><rect x="902.0" y="179.0" width="8" height="4.0" fill="#21e88a" opacity="0.28"/><line x1="956.4" y1="157.8" x2="956.4" y2="178.8" stroke="#21e88a" stroke-width="1.5" opacity="0.30"/><rect x="952.4" y="165.8" width="8" height="5.0" fill="#21e88a" opacity="0.28"/><line x1="1006.7" y1="130.1" x2="1006.7" y2="178.3" stroke="#21e88a" stroke-width="1.5" opacity="0.30"/><rect x="1002.7" y="148.5" width="8" height="11.5" fill="#21e88a" opacity="0.28"/><line x1="1057.0" y1="121.0" x2="1057.0" y2="167.7" stroke="#21e88a" stroke-width="1.5" opacity="0.30"/><rect x="1053.0" y="138.8" width="8" height="11.1" fill="#21e88a" opacity="0.28"/><line x1="1107.4" y1="125.4" x2="1107.4" y2="150.3" stroke="#21e88a" stroke-width="1.5" opacity="0.30"/><rect x="1103.4" y="134.9" width="8" height="5.9" fill="#21e88a" opacity="0.28"/><line x1="1157.7" y1="110.0" x2="1157.7" y2="141.7" stroke="#21e88a" stroke-width="1.5" opacity="0.30"/><rect x="1153.7" y="122.1" width="8" height="7.6" fill="#21e88a" opacity="0.28"/><line x1="1208.1" y1="120.6" x2="1208.1" y2="137.4" stroke="#ff3b5c" stroke-width="1.5" opacity="0.30"/><rect x="1204.1" y="127.0" width="8" height="4.0" fill="#ff3b5c" opacity="0.28"/><line x1="1258.4" y1="118.4" x2="1258.4" y2="144.4" stroke="#ff3b5c" stroke-width="1.5" opacity="0.30"/><rect x="1254.4" y="128.3" width="8" height="6.2" fill="#ff3b5c" opacity="0.28"/></g>
<polygon points="0.0,388.7 10.1,386.7 20.1,382.2 30.2,378.9 40.3,381.5 50.3,379.3 60.4,371.2 70.5,372.6 80.5,370.1 90.6,375.4 100.7,368.7 110.7,363.1 120.8,363.9 130.9,367.5 140.9,368.3 151.0,370.1 161.1,363.9 171.1,365.1 181.2,367.9 191.3,365.2 201.3,359.7 211.4,355.7 221.5,358.6 231.5,363.1 241.6,365.6 251.7,368.4 261.7,365.1 271.8,367.1 281.9,360.0 291.9,353.2 302.0,348.6 312.1,340.1 322.1,345.6 332.2,338.2 342.3,334.3 352.3,325.6 362.4,324.0 372.5,317.7 382.6,310.9 392.6,306.3 402.7,311.7 412.8,313.1 422.8,306.1 432.9,299.5 443.0,294.3 453.0,288.9 463.1,285.0 473.2,285.3 483.2,277.6 493.3,283.3 503.4,283.6 513.4,277.4 523.5,275.0 533.6,266.4 543.6,264.1 553.7,257.0 563.8,252.3 573.8,257.3 583.9,248.6 594.0,241.0 604.0,238.7 614.1,234.9 624.2,235.4 634.2,235.5 644.3,228.0 654.4,229.6 664.4,231.9 674.5,222.8 684.6,222.1 694.6,216.7 704.7,208.5 714.8,201.9 724.8,203.3 734.9,201.6 745.0,205.7 755.0,198.5 765.1,198.4 775.2,198.3 785.2,200.2 795.3,204.6 805.4,202.9 815.4,207.1 825.5,198.5 835.6,196.9 845.6,191.4 855.7,191.6 865.8,184.2 875.8,180.2 885.9,184.2 896.0,187.3 906.0,179.0 916.1,178.0 926.2,170.8 936.2,174.3 946.3,170.6 956.4,165.8 966.4,161.2 976.5,159.9 986.6,161.0 996.6,155.3 1006.7,148.5 1016.8,144.6 1026.8,149.9 1036.9,144.0 1047.0,146.5 1057.0,138.8 1067.1,142.9 1077.2,140.8 1087.2,134.9 1097.3,135.1 1107.4,134.9 1117.4,128.0 1127.5,129.6 1137.6,125.4 1147.7,126.0 1157.7,122.1 1167.8,126.1 1177.9,127.0 1187.9,126.4 1198.0,122.6 1208.1,128.2 1218.1,131.1 1228.2,128.3 1238.3,128.2 1248.3,128.5 1258.4,134.5 1268.5,138.0 1278.5,141.7 1288.6,142.5 1298.7,144.2 1308.7,141.5 1318.8,145.0 1328.9,148.5 1338.9,147.6 1349.0,148.0 1359.1,152.2 1369.1,147.6 1379.2,150.5 1389.3,142.3 1399.3,140.2 1409.4,136.2 1419.5,141.1 1429.5,134.3 1439.6,134.5 1449.7,129.8 1459.7,125.4 1469.8,117.2 1479.9,116.1 1489.9,116.4 1500.0,111.3 1500,500 0,500" fill="url(#areaG)"/>
<polyline points="0.0,388.7 10.1,386.7 20.1,382.2 30.2,378.9 40.3,381.5 50.3,379.3 60.4,371.2 70.5,372.6 80.5,370.1 90.6,375.4 100.7,368.7 110.7,363.1 120.8,363.9 130.9,367.5 140.9,368.3 151.0,370.1 161.1,363.9 171.1,365.1 181.2,367.9 191.3,365.2 201.3,359.7 211.4,355.7 221.5,358.6 231.5,363.1 241.6,365.6 251.7,368.4 261.7,365.1 271.8,367.1 281.9,360.0 291.9,353.2 302.0,348.6 312.1,340.1 322.1,345.6 332.2,338.2 342.3,334.3 352.3,325.6 362.4,324.0 372.5,317.7 382.6,310.9 392.6,306.3 402.7,311.7 412.8,313.1 422.8,306.1 432.9,299.5 443.0,294.3 453.0,288.9 463.1,285.0 473.2,285.3 483.2,277.6 493.3,283.3 503.4,283.6 513.4,277.4 523.5,275.0 533.6,266.4 543.6,264.1 553.7,257.0 563.8,252.3 573.8,257.3 583.9,248.6 594.0,241.0 604.0,238.7 614.1,234.9 624.2,235.4 634.2,235.5 644.3,228.0 654.4,229.6 664.4,231.9 674.5,222.8 684.6,222.1 694.6,216.7 704.7,208.5 714.8,201.9 724.8,203.3 734.9,201.6 745.0,205.7 755.0,198.5 765.1,198.4 775.2,198.3 785.2,200.2 795.3,204.6 805.4,202.9 815.4,207.1 825.5,198.5 835.6,196.9 845.6,191.4 855.7,191.6 865.8,184.2 875.8,180.2 885.9,184.2 896.0,187.3 906.0,179.0 916.1,178.0 926.2,170.8 936.2,174.3 946.3,170.6 956.4,165.8 966.4,161.2 976.5,159.9 986.6,161.0 996.6,155.3 1006.7,148.5 1016.8,144.6 1026.8,149.9 1036.9,144.0 1047.0,146.5 1057.0,138.8 1067.1,142.9 1077.2,140.8 1087.2,134.9 1097.3,135.1 1107.4,134.9 1117.4,128.0 1127.5,129.6 1137.6,125.4 1147.7,126.0 1157.7,122.1 1167.8,126.1 1177.9,127.0 1187.9,126.4 1198.0,122.6 1208.1,128.2 1218.1,131.1 1228.2,128.3 1238.3,128.2 1248.3,128.5 1258.4,134.5 1268.5,138.0 1278.5,141.7 1288.6,142.5 1298.7,144.2 1308.7,141.5 1318.8,145.0 1328.9,148.5 1338.9,147.6 1349.0,148.0 1359.1,152.2 1369.1,147.6 1379.2,150.5 1389.3,142.3 1399.3,140.2 1409.4,136.2 1419.5,141.1 1429.5,134.3 1439.6,134.5 1449.7,129.8 1459.7,125.4 1469.8,117.2 1479.9,116.1 1489.9,116.4 1500.0,111.3" fill="none" stroke="#21e88a" stroke-width="3" filter="url(#glowG)" stroke-linejoin="round" stroke-linecap="round"/>
<circle cx="1500.0" cy="111.3" r="7" fill="#21e88a" filter="url(#glowSoft)"/>
<g opacity="0.10"><line x1="0" y1="0" x2="1500" y2="0" stroke="#000" stroke-width="1"/><line x1="0" y1="3" x2="1500" y2="3" stroke="#000" stroke-width="1"/><line x1="0" y1="6" x2="1500" y2="6" stroke="#000" stroke-width="1"/><line x1="0" y1="9" x2="1500" y2="9" stroke="#000" stroke-width="1"/><line x1="0" y1="12" x2="1500" y2="12" stroke="#000" stroke-width="1"/><line x1="0" y1="15" x2="1500" y2="15" stroke="#000" stroke-width="1"/><line x1="0" y1="18" x2="1500" y2="18" stroke="#000" stroke-width="1"/><line x1="0" y1="21" x2="1500" y2="21" stroke="#000" stroke-width="1"/><line x1="0" y1="24" x2="1500" y2="24" stroke="#000" stroke-width="1"/><line x1="0" y1="27" x2="1500" y2="27" stroke="#000" stroke-width="1"/><line x1="0" y1="30" x2="1500" y2="30" stroke="#000" stroke-width="1"/><line x1="0" y1="33" x2="1500" y2="33" stroke="#000" stroke-width="1"/><line x1="0" y1="36" x2="1500" y2="36" stroke="#000" stroke-width="1"/><line x1="0" y1="39" x2="1500" y2="39" stroke="#000" stroke-width="1"/><line x1="0" y1="42" x2="1500" y2="42" stroke="#000" stroke-width="1"/><line x1="0" y1="45" x2="1500" y2="45" stroke="#000" stroke-width="1"/><line x1="0" y1="48" x2="1500" y2="48" stroke="#000" stroke-width="1"/><line x1="0" y1="51" x2="1500" y2="51" stroke="#000" stroke-width="1"/><line x1="0" y1="54" x2="1500" y2="54" stroke="#000" stroke-width="1"/><line x1="0" y1="57" x2="1500" y2="57" stroke="#000" stroke-width="1"/><line x1="0" y1="60" x2="1500" y2="60" stroke="#000" stroke-width="1"/><line x1="0" y1="63" x2="1500" y2="63" stroke="#000" stroke-width="1"/><line x1="0" y1="66" x2="1500" y2="66" stroke="#000" stroke-width="1"/><line x1="0" y1="69" x2="1500" y2="69" stroke="#000" stroke-width="1"/><line x1="0" y1="72" x2="1500" y2="72" stroke="#000" stroke-width="1"/><line x1="0" y1="75" x2="1500" y2="75" stroke="#000" stroke-width="1"/><line x1="0" y1="78" x2="1500" y2="78" stroke="#000" stroke-width="1"/><line x1="0" y1="81" x2="1500" y2="81" stroke="#000" stroke-width="1"/><line x1="0" y1="84" x2="1500" y2="84" stroke="#000" stroke-width="1"/><line x1="0" y1="87" x2="1500" y2="87" stroke="#000" stroke-width="1"/><line x1="0" y1="90" x2="1500" y2="90" stroke="#000" stroke-width="1"/><line x1="0" y1="93" x2="1500" y2="93" stroke="#000" stroke-width="1"/><line x1="0" y1="96" x2="1500" y2="96" stroke="#000" stroke-width="1"/><line x1="0" y1="99" x2="1500" y2="99" stroke="#000" stroke-width="1"/><line x1="0" y1="102" x2="1500" y2="102" stroke="#000" stroke-width="1"/><line x1="0" y1="105" x2="1500" y2="105" stroke="#000" stroke-width="1"/><line x1="0" y1="108" x2="1500" y2="108" stroke="#000" stroke-width="1"/><line x1="0" y1="111" x2="1500" y2="111" stroke="#000" stroke-width="1"/><line x1="0" y1="114" x2="1500" y2="114" stroke="#000" stroke-width="1"/><line x1="0" y1="117" x2="1500" y2="117" stroke="#000" stroke-width="1"/><line x1="0" y1="120" x2="1500" y2="120" stroke="#000" stroke-width="1"/><line x1="0" y1="123" x2="1500" y2="123" stroke="#000" stroke-width="1"/><line x1="0" y1="126" x2="1500" y2="126" stroke="#000" stroke-width="1"/><line x1="0" y1="129" x2="1500" y2="129" stroke="#000" stroke-width="1"/><line x1="0" y1="132" x2="1500" y2="132" stroke="#000" stroke-width="1"/><line x1="0" y1="135" x2="1500" y2="135" stroke="#000" stroke-width="1"/><line x1="0" y1="138" x2="1500" y2="138" stroke="#000" stroke-width="1"/><line x1="0" y1="141" x2="1500" y2="141" stroke="#000" stroke-width="1"/><line x1="0" y1="144" x2="1500" y2="144" stroke="#000" stroke-width="1"/><line x1="0" y1="147" x2="1500" y2="147" stroke="#000" stroke-width="1"/><line x1="0" y1="150" x2="1500" y2="150" stroke="#000" stroke-width="1"/><line x1="0" y1="153" x2="1500" y2="153" stroke="#000" stroke-width="1"/><line x1="0" y1="156" x2="1500" y2="156" stroke="#000" stroke-width="1"/><line x1="0" y1="159" x2="1500" y2="159" stroke="#000" stroke-width="1"/><line x1="0" y1="162" x2="1500" y2="162" stroke="#000" stroke-width="1"/><line x1="0" y1="165" x2="1500" y2="165" stroke="#000" stroke-width="1"/><line x1="0" y1="168" x2="1500" y2="168" stroke="#000" stroke-width="1"/><line x1="0" y1="171" x2="1500" y2="171" stroke="#000" stroke-width="1"/><line x1="0" y1="174" x2="1500" y2="174" stroke="#000" stroke-width="1"/><line x1="0" y1="177" x2="1500" y2="177" stroke="#000" stroke-width="1"/><line x1="0" y1="180" x2="1500" y2="180" stroke="#000" stroke-width="1"/><line x1="0" y1="183" x2="1500" y2="183" stroke="#000" stroke-width="1"/><line x1="0" y1="186" x2="1500" y2="186" stroke="#000" stroke-width="1"/><line x1="0" y1="189" x2="1500" y2="189" stroke="#000" stroke-width="1"/><line x1="0" y1="192" x2="1500" y2="192" stroke="#000" stroke-width="1"/><line x1="0" y1="195" x2="1500" y2="195" stroke="#000" stroke-width="1"/><line x1="0" y1="198" x2="1500" y2="198" stroke="#000" stroke-width="1"/><line x1="0" y1="201" x2="1500" y2="201" stroke="#000" stroke-width="1"/><line x1="0" y1="204" x2="1500" y2="204" stroke="#000" stroke-width="1"/><line x1="0" y1="207" x2="1500" y2="207" stroke="#000" stroke-width="1"/><line x1="0" y1="210" x2="1500" y2="210" stroke="#000" stroke-width="1"/><line x1="0" y1="213" x2="1500" y2="213" stroke="#000" stroke-width="1"/><line x1="0" y1="216" x2="1500" y2="216" stroke="#000" stroke-width="1"/><line x1="0" y1="219" x2="1500" y2="219" stroke="#000" stroke-width="1"/><line x1="0" y1="222" x2="1500" y2="222" stroke="#000" stroke-width="1"/><line x1="0" y1="225" x2="1500" y2="225" stroke="#000" stroke-width="1"/><line x1="0" y1="228" x2="1500" y2="228" stroke="#000" stroke-width="1"/><line x1="0" y1="231" x2="1500" y2="231" stroke="#000" stroke-width="1"/><line x1="0" y1="234" x2="1500" y2="234" stroke="#000" stroke-width="1"/><line x1="0" y1="237" x2="1500" y2="237" stroke="#000" stroke-width="1"/><line x1="0" y1="240" x2="1500" y2="240" stroke="#000" stroke-width="1"/><line x1="0" y1="243" x2="1500" y2="243" stroke="#000" stroke-width="1"/><line x1="0" y1="246" x2="1500" y2="246" stroke="#000" stroke-width="1"/><line x1="0" y1="249" x2="1500" y2="249" stroke="#000" stroke-width="1"/><line x1="0" y1="252" x2="1500" y2="252" stroke="#000" stroke-width="1"/><line x1="0" y1="255" x2="1500" y2="255" stroke="#000" stroke-width="1"/><line x1="0" y1="258" x2="1500" y2="258" stroke="#000" stroke-width="1"/><line x1="0" y1="261" x2="1500" y2="261" stroke="#000" stroke-width="1"/><line x1="0" y1="264" x2="1500" y2="264" stroke="#000" stroke-width="1"/><line x1="0" y1="267" x2="1500" y2="267" stroke="#000" stroke-width="1"/><line x1="0" y1="270" x2="1500" y2="270" stroke="#000" stroke-width="1"/><line x1="0" y1="273" x2="1500" y2="273" stroke="#000" stroke-width="1"/><line x1="0" y1="276" x2="1500" y2="276" stroke="#000" stroke-width="1"/><line x1="0" y1="279" x2="1500" y2="279" stroke="#000" stroke-width="1"/><line x1="0" y1="282" x2="1500" y2="282" stroke="#000" stroke-width="1"/><line x1="0" y1="285" x2="1500" y2="285" stroke="#000" stroke-width="1"/><line x1="0" y1="288" x2="1500" y2="288" stroke="#000" stroke-width="1"/><line x1="0" y1="291" x2="1500" y2="291" stroke="#000" stroke-width="1"/><line x1="0" y1="294" x2="1500" y2="294" stroke="#000" stroke-width="1"/><line x1="0" y1="297" x2="1500" y2="297" stroke="#000" stroke-width="1"/><line x1="0" y1="300" x2="1500" y2="300" stroke="#000" stroke-width="1"/><line x1="0" y1="303" x2="1500" y2="303" stroke="#000" stroke-width="1"/><line x1="0" y1="306" x2="1500" y2="306" stroke="#000" stroke-width="1"/><line x1="0" y1="309" x2="1500" y2="309" stroke="#000" stroke-width="1"/><line x1="0" y1="312" x2="1500" y2="312" stroke="#000" stroke-width="1"/><line x1="0" y1="315" x2="1500" y2="315" stroke="#000" stroke-width="1"/><line x1="0" y1="318" x2="1500" y2="318" stroke="#000" stroke-width="1"/><line x1="0" y1="321" x2="1500" y2="321" stroke="#000" stroke-width="1"/><line x1="0" y1="324" x2="1500" y2="324" stroke="#000" stroke-width="1"/><line x1="0" y1="327" x2="1500" y2="327" stroke="#000" stroke-width="1"/><line x1="0" y1="330" x2="1500" y2="330" stroke="#000" stroke-width="1"/><line x1="0" y1="333" x2="1500" y2="333" stroke="#000" stroke-width="1"/><line x1="0" y1="336" x2="1500" y2="336" stroke="#000" stroke-width="1"/><line x1="0" y1="339" x2="1500" y2="339" stroke="#000" stroke-width="1"/><line x1="0" y1="342" x2="1500" y2="342" stroke="#000" stroke-width="1"/><line x1="0" y1="345" x2="1500" y2="345" stroke="#000" stroke-width="1"/><line x1="0" y1="348" x2="1500" y2="348" stroke="#000" stroke-width="1"/><line x1="0" y1="351" x2="1500" y2="351" stroke="#000" stroke-width="1"/><line x1="0" y1="354" x2="1500" y2="354" stroke="#000" stroke-width="1"/><line x1="0" y1="357" x2="1500" y2="357" stroke="#000" stroke-width="1"/><line x1="0" y1="360" x2="1500" y2="360" stroke="#000" stroke-width="1"/><line x1="0" y1="363" x2="1500" y2="363" stroke="#000" stroke-width="1"/><line x1="0" y1="366" x2="1500" y2="366" stroke="#000" stroke-width="1"/><line x1="0" y1="369" x2="1500" y2="369" stroke="#000" stroke-width="1"/><line x1="0" y1="372" x2="1500" y2="372" stroke="#000" stroke-width="1"/><line x1="0" y1="375" x2="1500" y2="375" stroke="#000" stroke-width="1"/><line x1="0" y1="378" x2="1500" y2="378" stroke="#000" stroke-width="1"/><line x1="0" y1="381" x2="1500" y2="381" stroke="#000" stroke-width="1"/><line x1="0" y1="384" x2="1500" y2="384" stroke="#000" stroke-width="1"/><line x1="0" y1="387" x2="1500" y2="387" stroke="#000" stroke-width="1"/><line x1="0" y1="390" x2="1500" y2="390" stroke="#000" stroke-width="1"/><line x1="0" y1="393" x2="1500" y2="393" stroke="#000" stroke-width="1"/><line x1="0" y1="396" x2="1500" y2="396" stroke="#000" stroke-width="1"/><line x1="0" y1="399" x2="1500" y2="399" stroke="#000" stroke-width="1"/><line x1="0" y1="402" x2="1500" y2="402" stroke="#000" stroke-width="1"/><line x1="0" y1="405" x2="1500" y2="405" stroke="#000" stroke-width="1"/><line x1="0" y1="408" x2="1500" y2="408" stroke="#000" stroke-width="1"/><line x1="0" y1="411" x2="1500" y2="411" stroke="#000" stroke-width="1"/><line x1="0" y1="414" x2="1500" y2="414" stroke="#000" stroke-width="1"/><line x1="0" y1="417" x2="1500" y2="417" stroke="#000" stroke-width="1"/><line x1="0" y1="420" x2="1500" y2="420" stroke="#000" stroke-width="1"/><line x1="0" y1="423" x2="1500" y2="423" stroke="#000" stroke-width="1"/><line x1="0" y1="426" x2="1500" y2="426" stroke="#000" stroke-width="1"/><line x1="0" y1="429" x2="1500" y2="429" stroke="#000" stroke-width="1"/><line x1="0" y1="432" x2="1500" y2="432" stroke="#000" stroke-width="1"/><line x1="0" y1="435" x2="1500" y2="435" stroke="#000" stroke-width="1"/><line x1="0" y1="438" x2="1500" y2="438" stroke="#000" stroke-width="1"/><line x1="0" y1="441" x2="1500" y2="441" stroke="#000" stroke-width="1"/><line x1="0" y1="444" x2="1500" y2="444" stroke="#000" stroke-width="1"/><line x1="0" y1="447" x2="1500" y2="447" stroke="#000" stroke-width="1"/><line x1="0" y1="450" x2="1500" y2="450" stroke="#000" stroke-width="1"/><line x1="0" y1="453" x2="1500" y2="453" stroke="#000" stroke-width="1"/><line x1="0" y1="456" x2="1500" y2="456" stroke="#000" stroke-width="1"/><line x1="0" y1="459" x2="1500" y2="459" stroke="#000" stroke-width="1"/><line x1="0" y1="462" x2="1500" y2="462" stroke="#000" stroke-width="1"/><line x1="0" y1="465" x2="1500" y2="465" stroke="#000" stroke-width="1"/><line x1="0" y1="468" x2="1500" y2="468" stroke="#000" stroke-width="1"/><line x1="0" y1="471" x2="1500" y2="471" stroke="#000" stroke-width="1"/><line x1="0" y1="474" x2="1500" y2="474" stroke="#000" stroke-width="1"/><line x1="0" y1="477" x2="1500" y2="477" stroke="#000" stroke-width="1"/><line x1="0" y1="480" x2="1500" y2="480" stroke="#000" stroke-width="1"/><line x1="0" y1="483" x2="1500" y2="483" stroke="#000" stroke-width="1"/><line x1="0" y1="486" x2="1500" y2="486" stroke="#000" stroke-width="1"/><line x1="0" y1="489" x2="1500" y2="489" stroke="#000" stroke-width="1"/><line x1="0" y1="492" x2="1500" y2="492" stroke="#000" stroke-width="1"/><line x1="0" y1="495" x2="1500" y2="495" stroke="#000" stroke-width="1"/><line x1="0" y1="498" x2="1500" y2="498" stroke="#000" stroke-width="1"/></g>
<rect width="1500" height="500" fill="url(#vig)"/>

<!-- badge -->
<g transform="translate(60,64)">
  <rect x="0" y="0" width="320" height="34" rx="17" fill="#0a0f1c" stroke="#121b30"/>
  <circle cx="20" cy="17" r="5" fill="#ffd54a"/>
  <text x="38" y="22" font-family="Menlo,'Courier New',monospace" font-size="14" letter-spacing="3" fill="#5d6b91">ORYNTH GAME CUP · SEASON 1</text>
</g>

<!-- wordmark -->
<text x="58" y="270" font-family="Menlo,'Courier New',monospace" font-weight="900" font-size="150" letter-spacing="6" fill="url(#wm)" filter="url(#glowSoft)">SCALP</text>
<rect x="620" y="276" width="78" height="16" fill="#ffd54a" filter="url(#glowG)"/>

<!-- tagline -->
<text x="62" y="330" font-family="Menlo,'Courier New',monospace" font-size="26" letter-spacing="7" fill="#cdd9ff" opacity="0.92">READ THE TAPE<tspan fill="#5d6b91">  ·  </tspan>DON'T GET LIQUIDATED</text>

<!-- right ticker -->
<g transform="translate(1140,392)" opacity="0.95" font-family="Menlo,'Courier New',monospace">
  <text x="0" y="0" font-size="16" letter-spacing="2" fill="#5d6b91">60-SECOND TRADING FLOOR</text>
  <text x="0" y="34" font-size="34" font-weight="900" fill="#21e88a" filter="url(#glowG)">$1,000 ▸ $9,420</text>
</g>
</svg>