<svg xmlns="http://www.w3.org/2000/svg" width="1000" height="1000" viewBox="0 0 1000 1000">
<defs>
    <filter id="glowG" x="-40%" y="-40%" width="180%" height="180%"><feGaussianBlur stdDeviation="6" result="b"/><feMerge><feMergeNode in="b"/><feMergeNode in="SourceGraphic"/></feMerge></filter>
    <filter id="glowSoft" x="-60%" y="-60%" width="220%" height="220%"><feGaussianBlur stdDeviation="14" result="b"/><feMerge><feMergeNode in="b"/><feMergeNode in="SourceGraphic"/></feMerge></filter>
    <linearGradient id="areaG" x1="0" y1="0" x2="0" y2="1">
      <stop offset="0%" stop-color="#21e88a" stop-opacity="0.30"/>
      <stop offset="100%" stop-color="#21e88a" stop-opacity="0"/>
    </linearGradient>
    <radialGradient id="vig" cx="50%" cy="42%" r="75%">
      <stop offset="55%" stop-color="#000" stop-opacity="0"/>
      <stop offset="100%" stop-color="#000" stop-opacity="0.55"/>
    </radialGradient>
    <linearGradient id="wm" x1="0" y1="0" x2="0" y2="1">
      <stop offset="0%" stop-color="#ffffff"/>
      <stop offset="100%" stop-color="#46e8ff"/>
    </linearGradient>
  </defs>
<rect width="1000" height="1000" fill="#05070d"/>
<!-- tile -->
<rect x="40" y="40" width="920" height="920" rx="120" fill="#0a0f1c" stroke="#46e8ff" stroke-width="4" filter="url(#glowG)"/>
<clipPath id="tile"><rect x="40" y="40" width="920" height="920" rx="120"/></clipPath>
<g clip-path="url(#tile)">
  <g opacity="0.55"><line x1="0" y1="0" x2="0" y2="1000" stroke="#121b30" stroke-width="1"/><line x1="62" y1="0" x2="62" y2="1000" stroke="#121b30" stroke-width="1"/><line x1="124" y1="0" x2="124" y2="1000" stroke="#121b30" stroke-width="1"/><line x1="186" y1="0" x2="186" y2="1000" stroke="#121b30" stroke-width="1"/><line x1="248" y1="0" x2="248" y2="1000" stroke="#121b30" stroke-width="1"/><line x1="310" y1="0" x2="310" y2="1000" stroke="#121b30" stroke-width="1"/><line x1="372" y1="0" x2="372" y2="1000" stroke="#121b30" stroke-width="1"/><line x1="434" y1="0" x2="434" y2="1000" stroke="#121b30" stroke-width="1"/><line x1="496" y1="0" x2="496" y2="1000" stroke="#121b30" stroke-width="1"/><line x1="558" y1="0" x2="558" y2="1000" stroke="#121b30" stroke-width="1"/><line x1="620" y1="0" x2="620" y2="1000" stroke="#121b30" stroke-width="1"/><line x1="682" y1="0" x2="682" y2="1000" stroke="#121b30" stroke-width="1"/><line x1="744" y1="0" x2="744" y2="1000" stroke="#121b30" stroke-width="1"/><line x1="806" y1="0" x2="806" y2="1000" stroke="#121b30" stroke-width="1"/><line x1="868" y1="0" x2="868" y2="1000" stroke="#121b30" stroke-width="1"/><line x1="930" y1="0" x2="930" y2="1000" stroke="#121b30" stroke-width="1"/><line x1="992" y1="0" x2="992" y2="1000" stroke="#121b30" stroke-width="1"/><line x1="0" y1="0" x2="1000" y2="0" stroke="#121b30" stroke-width="1"/><line x1="0" y1="62" x2="1000" y2="62" stroke="#121b30" stroke-width="1"/><line x1="0" y1="124" x2="1000" y2="124" stroke="#121b30" stroke-width="1"/><line x1="0" y1="186" x2="1000" y2="186" stroke="#121b30" stroke-width="1"/><line x1="0" y1="248" x2="1000" y2="248" stroke="#121b30" stroke-width="1"/><line x1="0" y1="310" x2="1000" y2="310" stroke="#121b30" stroke-width="1"/><line x1="0" y1="372" x2="1000" y2="372" stroke="#121b30" stroke-width="1"/><line x1="0" y1="434" x2="1000" y2="434" stroke="#121b30" stroke-width="1"/><line x1="0" y1="496" x2="1000" y2="496" stroke="#121b30" stroke-width="1"/><line x1="0" y1="558" x2="1000" y2="558" stroke="#121b30" stroke-width="1"/><line x1="0" y1="620" x2="1000" y2="620" stroke="#121b30" stroke-width="1"/><line x1="0" y1="682" x2="1000" y2="682" stroke="#121b30" stroke-width="1"/><line x1="0" y1="744" x2="1000" y2="744" stroke="#121b30" stroke-width="1"/><line x1="0" y1="806" x2="1000" y2="806" stroke="#121b30" stroke-width="1"/><line x1="0" y1="868" x2="1000" y2="868" stroke="#121b30" stroke-width="1"/><line x1="0" y1="930" x2="1000" y2="930" stroke="#121b30" stroke-width="1"/><line x1="0" y1="992" x2="1000" y2="992" stroke="#121b30" stroke-width="1"/></g>
  <g><line x1="179.8" y1="483.0" x2="179.8" y2="503.5" stroke="#21e88a" stroke-width="1.5" opacity="0.30"/><rect x="175.8" y="490.8" width="8" height="4.9" fill="#21e88a" opacity="0.28"/><line x1="239.6" y1="478.6" x2="239.6" y2="516.4" stroke="#ff3b5c" stroke-width="1.5" opacity="0.30"/><rect x="235.6" y="493.0" width="8" height="9.0" fill="#ff3b5c" opacity="0.28"/><line x1="299.3" y1="481.8" x2="299.3" y2="509.9" stroke="#21e88a" stroke-width="1.5" opacity="0.30"/><rect x="295.3" y="492.5" width="8" height="6.7" fill="#21e88a" opacity="0.28"/><line x1="359.1" y1="434.4" x2="359.1" y2="502.5" stroke="#21e88a" stroke-width="1.5" opacity="0.30"/><rect x="355.1" y="460.3" width="8" height="16.2" fill="#21e88a" opacity="0.28"/><line x1="418.9" y1="416.9" x2="418.9" y2="475.4" stroke="#21e88a" stroke-width="1.5" opacity="0.30"/><rect x="414.9" y="439.2" width="8" height="13.9" fill="#21e88a" opacity="0.28"/><line x1="478.7" y1="426.0" x2="478.7" y2="442.8" stroke="#ff3b5c" stroke-width="1.5" opacity="0.30"/><rect x="474.7" y="432.4" width="8" height="4.0" fill="#ff3b5c" opacity="0.28"/><line x1="538.4" y1="405.4" x2="538.4" y2="439.3" stroke="#21e88a" stroke-width="1.5" opacity="0.30"/><rect x="534.4" y="418.3" width="8" height="8.1" fill="#21e88a" opacity="0.28"/><line x1="598.2" y1="407.6" x2="598.2" y2="426.4" stroke="#21e88a" stroke-width="1.5" opacity="0.30"/><rect x="594.2" y="414.8" width="8" height="4.5" fill="#21e88a" opacity="0.28"/><line x1="658.0" y1="371.0" x2="658.0" y2="415.5" stroke="#21e88a" stroke-width="1.5" opacity="0.30"/><rect x="654.0" y="387.9" width="8" height="10.6" fill="#21e88a" opacity="0.28"/><line x1="717.8" y1="343.9" x2="717.8" y2="414.5" stroke="#21e88a" stroke-width="1.5" opacity="0.30"/><rect x="713.8" y="369.9" width="8" height="18.6" fill="#21e88a" opacity="0.28"/><line x1="777.5" y1="320.0" x2="777.5" y2="389.0" stroke="#21e88a" stroke-width="1.5" opacity="0.30"/><rect x="773.5" y="346.0" width="8" height="17.0" fill="#21e88a" opacity="0.28"/></g>
  <polygon points="120.0,501.7 128.5,500.9 137.1,495.7 145.6,490.5 154.2,493.7 162.7,490.9 171.2,486.6 179.8,490.8 188.3,494.9 196.9,493.0 205.4,496.7 213.9,497.9 222.5,499.9 231.0,504.6 239.6,502.0 248.1,498.2 256.6,499.2 265.2,499.8 273.7,497.8 282.2,493.8 290.8,496.1 299.3,492.5 307.9,484.3 316.4,476.5 324.9,470.0 333.5,469.4 342.0,465.2 350.6,463.8 359.1,460.3 367.6,454.3 376.2,453.1 384.7,451.1 393.3,447.9 401.8,444.8 410.3,441.7 418.9,439.2 427.4,434.7 436.0,432.4 444.5,434.9 453.0,433.8 461.6,432.4 470.1,432.7 478.7,436.3 487.2,429.6 495.7,426.4 504.3,426.1 512.8,422.6 521.3,422.0 529.9,414.9 538.4,418.3 547.0,422.1 555.5,419.3 564.0,414.2 572.6,416.9 581.1,419.7 589.7,413.0 598.2,414.8 606.7,405.8 615.3,398.6 623.8,395.2 632.4,398.9 640.9,400.3 649.4,394.5 658.0,387.9 666.5,389.4 675.1,388.5 683.6,385.7 692.1,377.3 700.7,376.3 709.2,378.5 717.8,369.9 726.3,368.1 734.8,363.0 743.4,356.4 751.9,352.3 760.4,350.8 769.0,347.7 777.5,346.0 786.1,343.5 794.6,333.0 803.1,327.6 811.7,324.6 820.2,319.7 828.8,312.6 837.3,307.5 845.8,300.9 854.4,294.2 862.9,296.4 871.5,288.7 880.0,285.4 880,620 120,620" fill="url(#areaG)"/>
  <polyline points="120.0,501.7 128.5,500.9 137.1,495.7 145.6,490.5 154.2,493.7 162.7,490.9 171.2,486.6 179.8,490.8 188.3,494.9 196.9,493.0 205.4,496.7 213.9,497.9 222.5,499.9 231.0,504.6 239.6,502.0 248.1,498.2 256.6,499.2 265.2,499.8 273.7,497.8 282.2,493.8 290.8,496.1 299.3,492.5 307.9,484.3 316.4,476.5 324.9,470.0 333.5,469.4 342.0,465.2 350.6,463.8 359.1,460.3 367.6,454.3 376.2,453.1 384.7,451.1 393.3,447.9 401.8,444.8 410.3,441.7 418.9,439.2 427.4,434.7 436.0,432.4 444.5,434.9 453.0,433.8 461.6,432.4 470.1,432.7 478.7,436.3 487.2,429.6 495.7,426.4 504.3,426.1 512.8,422.6 521.3,422.0 529.9,414.9 538.4,418.3 547.0,422.1 555.5,419.3 564.0,414.2 572.6,416.9 581.1,419.7 589.7,413.0 598.2,414.8 606.7,405.8 615.3,398.6 623.8,395.2 632.4,398.9 640.9,400.3 649.4,394.5 658.0,387.9 666.5,389.4 675.1,388.5 683.6,385.7 692.1,377.3 700.7,376.3 709.2,378.5 717.8,369.9 726.3,368.1 734.8,363.0 743.4,356.4 751.9,352.3 760.4,350.8 769.0,347.7 777.5,346.0 786.1,343.5 794.6,333.0 803.1,327.6 811.7,324.6 820.2,319.7 828.8,312.6 837.3,307.5 845.8,300.9 854.4,294.2 862.9,296.4 871.5,288.7 880.0,285.4" fill="none" stroke="#21e88a" stroke-width="7" filter="url(#glowG)" stroke-linejoin="round" stroke-linecap="round"/>
  <circle cx="880.0" cy="285.4" r="14" fill="#21e88a" filter="url(#glowSoft)"/>
  <!-- skalp cut: a bright diagonal slash -->
  <line x1="170" y1="690" x2="830" y2="470" stroke="#ffffff" stroke-width="3" opacity="0.18"/>
  <g opacity="0.10"><line x1="0" y1="0" x2="1000" y2="0" stroke="#000" stroke-width="1"/><line x1="0" y1="3" x2="1000" y2="3" stroke="#000" stroke-width="1"/><line x1="0" y1="6" x2="1000" y2="6" stroke="#000" stroke-width="1"/><line x1="0" y1="9" x2="1000" y2="9" stroke="#000" stroke-width="1"/><line x1="0" y1="12" x2="1000" y2="12" stroke="#000" stroke-width="1"/><line x1="0" y1="15" x2="1000" y2="15" stroke="#000" stroke-width="1"/><line x1="0" y1="18" x2="1000" y2="18" stroke="#000" stroke-width="1"/><line x1="0" y1="21" x2="1000" y2="21" stroke="#000" stroke-width="1"/><line x1="0" y1="24" x2="1000" y2="24" stroke="#000" stroke-width="1"/><line x1="0" y1="27" x2="1000" y2="27" stroke="#000" stroke-width="1"/><line x1="0" y1="30" x2="1000" y2="30" stroke="#000" stroke-width="1"/><line x1="0" y1="33" x2="1000" y2="33" stroke="#000" stroke-width="1"/><line x1="0" y1="36" x2="1000" y2="36" stroke="#000" stroke-width="1"/><line x1="0" y1="39" x2="1000" y2="39" stroke="#000" stroke-width="1"/><line x1="0" y1="42" x2="1000" y2="42" stroke="#000" stroke-width="1"/><line x1="0" y1="45" x2="1000" y2="45" stroke="#000" stroke-width="1"/><line x1="0" y1="48" x2="1000" y2="48" stroke="#000" stroke-width="1"/><line x1="0" y1="51" x2="1000" y2="51" stroke="#000" stroke-width="1"/><line x1="0" y1="54" x2="1000" y2="54" stroke="#000" stroke-width="1"/><line x1="0" y1="57" x2="1000" y2="57" stroke="#000" stroke-width="1"/><line x1="0" y1="60" x2="1000" y2="60" stroke="#000" stroke-width="1"/><line x1="0" y1="63" x2="1000" y2="63" stroke="#000" stroke-width="1"/><line x1="0" y1="66" x2="1000" y2="66" stroke="#000" stroke-width="1"/><line x1="0" y1="69" x2="1000" y2="69" stroke="#000" stroke-width="1"/><line x1="0" y1="72" x2="1000" y2="72" stroke="#000" stroke-width="1"/><line x1="0" y1="75" x2="1000" y2="75" stroke="#000" stroke-width="1"/><line x1="0" y1="78" x2="1000" y2="78" stroke="#000" stroke-width="1"/><line x1="0" y1="81" x2="1000" y2="81" stroke="#000" stroke-width="1"/><line x1="0" y1="84" x2="1000" y2="84" stroke="#000" stroke-width="1"/><line x1="0" y1="87" x2="1000" y2="87" stroke="#000" stroke-width="1"/><line x1="0" y1="90" x2="1000" y2="90" stroke="#000" stroke-width="1"/><line x1="0" y1="93" x2="1000" y2="93" stroke="#000" stroke-width="1"/><line x1="0" y1="96" x2="1000" y2="96" stroke="#000" stroke-width="1"/><line x1="0" y1="99" x2="1000" y2="99" stroke="#000" stroke-width="1"/><line x1="0" y1="102" x2="1000" y2="102" stroke="#000" stroke-width="1"/><line x1="0" y1="105" x2="1000" y2="105" stroke="#000" stroke-width="1"/><line x1="0" y1="108" x2="1000" y2="108" stroke="#000" stroke-width="1"/><line x1="0" y1="111" x2="1000" y2="111" stroke="#000" stroke-width="1"/><line x1="0" y1="114" x2="1000" y2="114" stroke="#000" stroke-width="1"/><line x1="0" y1="117" x2="1000" y2="117" stroke="#000" stroke-width="1"/><line x1="0" y1="120" x2="1000" y2="120" stroke="#000" stroke-width="1"/><line x1="0" y1="123" x2="1000" y2="123" stroke="#000" stroke-width="1"/><line x1="0" y1="126" x2="1000" y2="126" stroke="#000" stroke-width="1"/><line x1="0" y1="129" x2="1000" y2="129" stroke="#000" stroke-width="1"/><line x1="0" y1="132" x2="1000" y2="132" stroke="#000" stroke-width="1"/><line x1="0" y1="135" x2="1000" y2="135" stroke="#000" stroke-width="1"/><line x1="0" y1="138" x2="1000" y2="138" stroke="#000" stroke-width="1"/><line x1="0" y1="141" x2="1000" y2="141" stroke="#000" stroke-width="1"/><line x1="0" y1="144" x2="1000" y2="144" stroke="#000" stroke-width="1"/><line x1="0" y1="147" x2="1000" y2="147" stroke="#000" stroke-width="1"/><line x1="0" y1="150" x2="1000" y2="150" stroke="#000" stroke-width="1"/><line x1="0" y1="153" x2="1000" y2="153" stroke="#000" stroke-width="1"/><line x1="0" y1="156" x2="1000" y2="156" stroke="#000" stroke-width="1"/><line x1="0" y1="159" x2="1000" y2="159" stroke="#000" stroke-width="1"/><line x1="0" y1="162" x2="1000" y2="162" stroke="#000" stroke-width="1"/><line x1="0" y1="165" x2="1000" y2="165" stroke="#000" stroke-width="1"/><line x1="0" y1="168" x2="1000" y2="168" stroke="#000" stroke-width="1"/><line x1="0" y1="171" x2="1000" y2="171" stroke="#000" stroke-width="1"/><line x1="0" y1="174" x2="1000" y2="174" stroke="#000" stroke-width="1"/><line x1="0" y1="177" x2="1000" y2="177" stroke="#000" stroke-width="1"/><line x1="0" y1="180" x2="1000" y2="180" stroke="#000" stroke-width="1"/><line x1="0" y1="183" x2="1000" y2="183" stroke="#000" stroke-width="1"/><line x1="0" y1="186" x2="1000" y2="186" stroke="#000" stroke-width="1"/><line x1="0" y1="189" x2="1000" y2="189" stroke="#000" stroke-width="1"/><line x1="0" y1="192" x2="1000" y2="192" stroke="#000" stroke-width="1"/><line x1="0" y1="195" x2="1000" y2="195" stroke="#000" stroke-width="1"/><line x1="0" y1="198" x2="1000" y2="198" stroke="#000" stroke-width="1"/><line x1="0" y1="201" x2="1000" y2="201" stroke="#000" stroke-width="1"/><line x1="0" y1="204" x2="1000" y2="204" stroke="#000" stroke-width="1"/><line x1="0" y1="207" x2="1000" y2="207" stroke="#000" stroke-width="1"/><line x1="0" y1="210" x2="1000" y2="210" stroke="#000" stroke-width="1"/><line x1="0" y1="213" x2="1000" y2="213" stroke="#000" stroke-width="1"/><line x1="0" y1="216" x2="1000" y2="216" stroke="#000" stroke-width="1"/><line x1="0" y1="219" x2="1000" y2="219" stroke="#000" stroke-width="1"/><line x1="0" y1="222" x2="1000" y2="222" stroke="#000" stroke-width="1"/><line x1="0" y1="225" x2="1000" y2="225" stroke="#000" stroke-width="1"/><line x1="0" y1="228" x2="1000" y2="228" stroke="#000" stroke-width="1"/><line x1="0" y1="231" x2="1000" y2="231" stroke="#000" stroke-width="1"/><line x1="0" y1="234" x2="1000" y2="234" stroke="#000" stroke-width="1"/><line x1="0" y1="237" x2="1000" y2="237" stroke="#000" stroke-width="1"/><line x1="0" y1="240" x2="1000" y2="240" stroke="#000" stroke-width="1"/><line x1="0" y1="243" x2="1000" y2="243" stroke="#000" stroke-width="1"/><line x1="0" y1="246" x2="1000" y2="246" stroke="#000" stroke-width="1"/><line x1="0" y1="249" x2="1000" y2="249" stroke="#000" stroke-width="1"/><line x1="0" y1="252" x2="1000" y2="252" stroke="#000" stroke-width="1"/><line x1="0" y1="255" x2="1000" y2="255" stroke="#000" stroke-width="1"/><line x1="0" y1="258" x2="1000" y2="258" stroke="#000" stroke-width="1"/><line x1="0" y1="261" x2="1000" y2="261" stroke="#000" stroke-width="1"/><line x1="0" y1="264" x2="1000" y2="264" stroke="#000" stroke-width="1"/><line x1="0" y1="267" x2="1000" y2="267" stroke="#000" stroke-width="1"/><line x1="0" y1="270" x2="1000" y2="270" stroke="#000" stroke-width="1"/><line x1="0" y1="273" x2="1000" y2="273" stroke="#000" stroke-width="1"/><line x1="0" y1="276" x2="1000" y2="276" stroke="#000" stroke-width="1"/><line x1="0" y1="279" x2="1000" y2="279" stroke="#000" stroke-width="1"/><line x1="0" y1="282" x2="1000" y2="282" stroke="#000" stroke-width="1"/><line x1="0" y1="285" x2="1000" y2="285" stroke="#000" stroke-width="1"/><line x1="0" y1="288" x2="1000" y2="288" stroke="#000" stroke-width="1"/><line x1="0" y1="291" x2="1000" y2="291" stroke="#000" stroke-width="1"/><line x1="0" y1="294" x2="1000" y2="294" stroke="#000" stroke-width="1"/><line x1="0" y1="297" x2="1000" y2="297" stroke="#000" stroke-width="1"/><line x1="0" y1="300" x2="1000" y2="300" stroke="#000" stroke-width="1"/><line x1="0" y1="303" x2="1000" y2="303" stroke="#000" stroke-width="1"/><line x1="0" y1="306" x2="1000" y2="306" stroke="#000" stroke-width="1"/><line x1="0" y1="309" x2="1000" y2="309" stroke="#000" stroke-width="1"/><line x1="0" y1="312" x2="1000" y2="312" stroke="#000" stroke-width="1"/><line x1="0" y1="315" x2="1000" y2="315" stroke="#000" stroke-width="1"/><line x1="0" y1="318" x2="1000" y2="318" stroke="#000" stroke-width="1"/><line x1="0" y1="321" x2="1000" y2="321" stroke="#000" stroke-width="1"/><line x1="0" y1="324" x2="1000" y2="324" stroke="#000" stroke-width="1"/><line x1="0" y1="327" x2="1000" y2="327" stroke="#000" stroke-width="1"/><line x1="0" y1="330" x2="1000" y2="330" stroke="#000" stroke-width="1"/><line x1="0" y1="333" x2="1000" y2="333" stroke="#000" stroke-width="1"/><line x1="0" y1="336" x2="1000" y2="336" stroke="#000" stroke-width="1"/><line x1="0" y1="339" x2="1000" y2="339" stroke="#000" stroke-width="1"/><line x1="0" y1="342" x2="1000" y2="342" stroke="#000" stroke-width="1"/><line x1="0" y1="345" x2="1000" y2="345" stroke="#000" stroke-width="1"/><line x1="0" y1="348" x2="1000" y2="348" stroke="#000" stroke-width="1"/><line x1="0" y1="351" x2="1000" y2="351" stroke="#000" stroke-width="1"/><line x1="0" y1="354" x2="1000" y2="354" stroke="#000" stroke-width="1"/><line x1="0" y1="357" x2="1000" y2="357" stroke="#000" stroke-width="1"/><line x1="0" y1="360" x2="1000" y2="360" stroke="#000" stroke-width="1"/><line x1="0" y1="363" x2="1000" y2="363" stroke="#000" stroke-width="1"/><line x1="0" y1="366" x2="1000" y2="366" stroke="#000" stroke-width="1"/><line x1="0" y1="369" x2="1000" y2="369" stroke="#000" stroke-width="1"/><line x1="0" y1="372" x2="1000" y2="372" stroke="#000" stroke-width="1"/><line x1="0" y1="375" x2="1000" y2="375" stroke="#000" stroke-width="1"/><line x1="0" y1="378" x2="1000" y2="378" stroke="#000" stroke-width="1"/><line x1="0" y1="381" x2="1000" y2="381" stroke="#000" stroke-width="1"/><line x1="0" y1="384" x2="1000" y2="384" stroke="#000" stroke-width="1"/><line x1="0" y1="387" x2="1000" y2="387" stroke="#000" stroke-width="1"/><line x1="0" y1="390" x2="1000" y2="390" stroke="#000" stroke-width="1"/><line x1="0" y1="393" x2="1000" y2="393" stroke="#000" stroke-width="1"/><line x1="0" y1="396" x2="1000" y2="396" stroke="#000" stroke-width="1"/><line x1="0" y1="399" x2="1000" y2="399" stroke="#000" stroke-width="1"/><line x1="0" y1="402" x2="1000" y2="402" stroke="#000" stroke-width="1"/><line x1="0" y1="405" x2="1000" y2="405" stroke="#000" stroke-width="1"/><line x1="0" y1="408" x2="1000" y2="408" stroke="#000" stroke-width="1"/><line x1="0" y1="411" x2="1000" y2="411" stroke="#000" stroke-width="1"/><line x1="0" y1="414" x2="1000" y2="414" stroke="#000" stroke-width="1"/><line x1="0" y1="417" x2="1000" y2="417" stroke="#000" stroke-width="1"/><line x1="0" y1="420" x2="1000" y2="420" stroke="#000" stroke-width="1"/><line x1="0" y1="423" x2="1000" y2="423" stroke="#000" stroke-width="1"/><line x1="0" y1="426" x2="1000" y2="426" stroke="#000" stroke-width="1"/><line x1="0" y1="429" x2="1000" y2="429" stroke="#000" stroke-width="1"/><line x1="0" y1="432" x2="1000" y2="432" stroke="#000" stroke-width="1"/><line x1="0" y1="435" x2="1000" y2="435" stroke="#000" stroke-width="1"/><line x1="0" y1="438" x2="1000" y2="438" stroke="#000" stroke-width="1"/><line x1="0" y1="441" x2="1000" y2="441" stroke="#000" stroke-width="1"/><line x1="0" y1="444" x2="1000" y2="444" stroke="#000" stroke-width="1"/><line x1="0" y1="447" x2="1000" y2="447" stroke="#000" stroke-width="1"/><line x1="0" y1="450" x2="1000" y2="450" stroke="#000" stroke-width="1"/><line x1="0" y1="453" x2="1000" y2="453" stroke="#000" stroke-width="1"/><line x1="0" y1="456" x2="1000" y2="456" stroke="#000" stroke-width="1"/><line x1="0" y1="459" x2="1000" y2="459" stroke="#000" stroke-width="1"/><line x1="0" y1="462" x2="1000" y2="462" stroke="#000" stroke-width="1"/><line x1="0" y1="465" x2="1000" y2="465" stroke="#000" stroke-width="1"/><line x1="0" y1="468" x2="1000" y2="468" stroke="#000" stroke-width="1"/><line x1="0" y1="471" x2="1000" y2="471" stroke="#000" stroke-width="1"/><line x1="0" y1="474" x2="1000" y2="474" stroke="#000" stroke-width="1"/><line x1="0" y1="477" x2="1000" y2="477" stroke="#000" stroke-width="1"/><line x1="0" y1="480" x2="1000" y2="480" stroke="#000" stroke-width="1"/><line x1="0" y1="483" x2="1000" y2="483" stroke="#000" stroke-width="1"/><line x1="0" y1="486" x2="1000" y2="486" stroke="#000" stroke-width="1"/><line x1="0" y1="489" x2="1000" y2="489" stroke="#000" stroke-width="1"/><line x1="0" y1="492" x2="1000" y2="492" stroke="#000" stroke-width="1"/><line x1="0" y1="495" x2="1000" y2="495" stroke="#000" stroke-width="1"/><line x1="0" y1="498" x2="1000" y2="498" stroke="#000" stroke-width="1"/><line x1="0" y1="501" x2="1000" y2="501" stroke="#000" stroke-width="1"/><line x1="0" y1="504" x2="1000" y2="504" stroke="#000" stroke-width="1"/><line x1="0" y1="507" x2="1000" y2="507" stroke="#000" stroke-width="1"/><line x1="0" y1="510" x2="1000" y2="510" stroke="#000" stroke-width="1"/><line x1="0" y1="513" x2="1000" y2="513" stroke="#000" stroke-width="1"/><line x1="0" y1="516" x2="1000" y2="516" stroke="#000" stroke-width="1"/><line x1="0" y1="519" x2="1000" y2="519" stroke="#000" stroke-width="1"/><line x1="0" y1="522" x2="1000" y2="522" stroke="#000" stroke-width="1"/><line x1="0" y1="525" x2="1000" y2="525" stroke="#000" stroke-width="1"/><line x1="0" y1="528" x2="1000" y2="528" stroke="#000" stroke-width="1"/><line x1="0" y1="531" x2="1000" y2="531" stroke="#000" stroke-width="1"/><line x1="0" y1="534" x2="1000" y2="534" stroke="#000" stroke-width="1"/><line x1="0" y1="537" x2="1000" y2="537" stroke="#000" stroke-width="1"/><line x1="0" y1="540" x2="1000" y2="540" stroke="#000" stroke-width="1"/><line x1="0" y1="543" x2="1000" y2="543" stroke="#000" stroke-width="1"/><line x1="0" y1="546" x2="1000" y2="546" stroke="#000" stroke-width="1"/><line x1="0" y1="549" x2="1000" y2="549" stroke="#000" stroke-width="1"/><line x1="0" y1="552" x2="1000" y2="552" stroke="#000" stroke-width="1"/><line x1="0" y1="555" x2="1000" y2="555" stroke="#000" stroke-width="1"/><line x1="0" y1="558" x2="1000" y2="558" stroke="#000" stroke-width="1"/><line x1="0" y1="561" x2="1000" y2="561" stroke="#000" stroke-width="1"/><line x1="0" y1="564" x2="1000" y2="564" stroke="#000" stroke-width="1"/><line x1="0" y1="567" x2="1000" y2="567" stroke="#000" stroke-width="1"/><line x1="0" y1="570" x2="1000" y2="570" stroke="#000" stroke-width="1"/><line x1="0" y1="573" x2="1000" y2="573" stroke="#000" stroke-width="1"/><line x1="0" y1="576" x2="1000" y2="576" stroke="#000" stroke-width="1"/><line x1="0" y1="579" x2="1000" y2="579" stroke="#000" stroke-width="1"/><line x1="0" y1="582" x2="1000" y2="582" stroke="#000" stroke-width="1"/><line x1="0" y1="585" x2="1000" y2="585" stroke="#000" stroke-width="1"/><line x1="0" y1="588" x2="1000" y2="588" stroke="#000" stroke-width="1"/><line x1="0" y1="591" x2="1000" y2="591" stroke="#000" stroke-width="1"/><line x1="0" y1="594" x2="1000" y2="594" stroke="#000" stroke-width="1"/><line x1="0" y1="597" x2="1000" y2="597" stroke="#000" stroke-width="1"/><line x1="0" y1="600" x2="1000" y2="600" stroke="#000" stroke-width="1"/><line x1="0" y1="603" x2="1000" y2="603" stroke="#000" stroke-width="1"/><line x1="0" y1="606" x2="1000" y2="606" stroke="#000" stroke-width="1"/><line x1="0" y1="609" x2="1000" y2="609" stroke="#000" stroke-width="1"/><line x1="0" y1="612" x2="1000" y2="612" stroke="#000" stroke-width="1"/><line x1="0" y1="615" x2="1000" y2="615" stroke="#000" stroke-width="1"/><line x1="0" y1="618" x2="1000" y2="618" stroke="#000" stroke-width="1"/><line x1="0" y1="621" x2="1000" y2="621" stroke="#000" stroke-width="1"/><line x1="0" y1="624" x2="1000" y2="624" stroke="#000" stroke-width="1"/><line x1="0" y1="627" x2="1000" y2="627" stroke="#000" stroke-width="1"/><line x1="0" y1="630" x2="1000" y2="630" stroke="#000" stroke-width="1"/><line x1="0" y1="633" x2="1000" y2="633" stroke="#000" stroke-width="1"/><line x1="0" y1="636" x2="1000" y2="636" stroke="#000" stroke-width="1"/><line x1="0" y1="639" x2="1000" y2="639" stroke="#000" stroke-width="1"/><line x1="0" y1="642" x2="1000" y2="642" stroke="#000" stroke-width="1"/><line x1="0" y1="645" x2="1000" y2="645" stroke="#000" stroke-width="1"/><line x1="0" y1="648" x2="1000" y2="648" stroke="#000" stroke-width="1"/><line x1="0" y1="651" x2="1000" y2="651" stroke="#000" stroke-width="1"/><line x1="0" y1="654" x2="1000" y2="654" stroke="#000" stroke-width="1"/><line x1="0" y1="657" x2="1000" y2="657" stroke="#000" stroke-width="1"/><line x1="0" y1="660" x2="1000" y2="660" stroke="#000" stroke-width="1"/><line x1="0" y1="663" x2="1000" y2="663" stroke="#000" stroke-width="1"/><line x1="0" y1="666" x2="1000" y2="666" stroke="#000" stroke-width="1"/><line x1="0" y1="669" x2="1000" y2="669" stroke="#000" stroke-width="1"/><line x1="0" y1="672" x2="1000" y2="672" stroke="#000" stroke-width="1"/><line x1="0" y1="675" x2="1000" y2="675" stroke="#000" stroke-width="1"/><line x1="0" y1="678" x2="1000" y2="678" stroke="#000" stroke-width="1"/><line x1="0" y1="681" x2="1000" y2="681" stroke="#000" stroke-width="1"/><line x1="0" y1="684" x2="1000" y2="684" stroke="#000" stroke-width="1"/><line x1="0" y1="687" x2="1000" y2="687" stroke="#000" stroke-width="1"/><line x1="0" y1="690" x2="1000" y2="690" stroke="#000" stroke-width="1"/><line x1="0" y1="693" x2="1000" y2="693" stroke="#000" stroke-width="1"/><line x1="0" y1="696" x2="1000" y2="696" stroke="#000" stroke-width="1"/><line x1="0" y1="699" x2="1000" y2="699" stroke="#000" stroke-width="1"/><line x1="0" y1="702" x2="1000" y2="702" stroke="#000" stroke-width="1"/><line x1="0" y1="705" x2="1000" y2="705" stroke="#000" stroke-width="1"/><line x1="0" y1="708" x2="1000" y2="708" stroke="#000" stroke-width="1"/><line x1="0" y1="711" x2="1000" y2="711" stroke="#000" stroke-width="1"/><line x1="0" y1="714" x2="1000" y2="714" stroke="#000" stroke-width="1"/><line x1="0" y1="717" x2="1000" y2="717" stroke="#000" stroke-width="1"/><line x1="0" y1="720" x2="1000" y2="720" stroke="#000" stroke-width="1"/><line x1="0" y1="723" x2="1000" y2="723" stroke="#000" stroke-width="1"/><line x1="0" y1="726" x2="1000" y2="726" stroke="#000" stroke-width="1"/><line x1="0" y1="729" x2="1000" y2="729" stroke="#000" stroke-width="1"/><line x1="0" y1="732" x2="1000" y2="732" stroke="#000" stroke-width="1"/><line x1="0" y1="735" x2="1000" y2="735" stroke="#000" stroke-width="1"/><line x1="0" y1="738" x2="1000" y2="738" stroke="#000" stroke-width="1"/><line x1="0" y1="741" x2="1000" y2="741" stroke="#000" stroke-width="1"/><line x1="0" y1="744" x2="1000" y2="744" stroke="#000" stroke-width="1"/><line x1="0" y1="747" x2="1000" y2="747" stroke="#000" stroke-width="1"/><line x1="0" y1="750" x2="1000" y2="750" stroke="#000" stroke-width="1"/><line x1="0" y1="753" x2="1000" y2="753" stroke="#000" stroke-width="1"/><line x1="0" y1="756" x2="1000" y2="756" stroke="#000" stroke-width="1"/><line x1="0" y1="759" x2="1000" y2="759" stroke="#000" stroke-width="1"/><line x1="0" y1="762" x2="1000" y2="762" stroke="#000" stroke-width="1"/><line x1="0" y1="765" x2="1000" y2="765" stroke="#000" stroke-width="1"/><line x1="0" y1="768" x2="1000" y2="768" stroke="#000" stroke-width="1"/><line x1="0" y1="771" x2="1000" y2="771" stroke="#000" stroke-width="1"/><line x1="0" y1="774" x2="1000" y2="774" stroke="#000" stroke-width="1"/><line x1="0" y1="777" x2="1000" y2="777" stroke="#000" stroke-width="1"/><line x1="0" y1="780" x2="1000" y2="780" stroke="#000" stroke-width="1"/><line x1="0" y1="783" x2="1000" y2="783" stroke="#000" stroke-width="1"/><line x1="0" y1="786" x2="1000" y2="786" stroke="#000" stroke-width="1"/><line x1="0" y1="789" x2="1000" y2="789" stroke="#000" stroke-width="1"/><line x1="0" y1="792" x2="1000" y2="792" stroke="#000" stroke-width="1"/><line x1="0" y1="795" x2="1000" y2="795" stroke="#000" stroke-width="1"/><line x1="0" y1="798" x2="1000" y2="798" stroke="#000" stroke-width="1"/><line x1="0" y1="801" x2="1000" y2="801" stroke="#000" stroke-width="1"/><line x1="0" y1="804" x2="1000" y2="804" stroke="#000" stroke-width="1"/><line x1="0" y1="807" x2="1000" y2="807" stroke="#000" stroke-width="1"/><line x1="0" y1="810" x2="1000" y2="810" stroke="#000" stroke-width="1"/><line x1="0" y1="813" x2="1000" y2="813" stroke="#000" stroke-width="1"/><line x1="0" y1="816" x2="1000" y2="816" stroke="#000" stroke-width="1"/><line x1="0" y1="819" x2="1000" y2="819" stroke="#000" stroke-width="1"/><line x1="0" y1="822" x2="1000" y2="822" stroke="#000" stroke-width="1"/><line x1="0" y1="825" x2="1000" y2="825" stroke="#000" stroke-width="1"/><line x1="0" y1="828" x2="1000" y2="828" stroke="#000" stroke-width="1"/><line x1="0" y1="831" x2="1000" y2="831" stroke="#000" stroke-width="1"/><line x1="0" y1="834" x2="1000" y2="834" stroke="#000" stroke-width="1"/><line x1="0" y1="837" x2="1000" y2="837" stroke="#000" stroke-width="1"/><line x1="0" y1="840" x2="1000" y2="840" stroke="#000" stroke-width="1"/><line x1="0" y1="843" x2="1000" y2="843" stroke="#000" stroke-width="1"/><line x1="0" y1="846" x2="1000" y2="846" stroke="#000" stroke-width="1"/><line x1="0" y1="849" x2="1000" y2="849" stroke="#000" stroke-width="1"/><line x1="0" y1="852" x2="1000" y2="852" stroke="#000" stroke-width="1"/><line x1="0" y1="855" x2="1000" y2="855" stroke="#000" stroke-width="1"/><line x1="0" y1="858" x2="1000" y2="858" stroke="#000" stroke-width="1"/><line x1="0" y1="861" x2="1000" y2="861" stroke="#000" stroke-width="1"/><line x1="0" y1="864" x2="1000" y2="864" stroke="#000" stroke-width="1"/><line x1="0" y1="867" x2="1000" y2="867" stroke="#000" stroke-width="1"/><line x1="0" y1="870" x2="1000" y2="870" stroke="#000" stroke-width="1"/><line x1="0" y1="873" x2="1000" y2="873" stroke="#000" stroke-width="1"/><line x1="0" y1="876" x2="1000" y2="876" stroke="#000" stroke-width="1"/><line x1="0" y1="879" x2="1000" y2="879" stroke="#000" stroke-width="1"/><line x1="0" y1="882" x2="1000" y2="882" stroke="#000" stroke-width="1"/><line x1="0" y1="885" x2="1000" y2="885" stroke="#000" stroke-width="1"/><line x1="0" y1="888" x2="1000" y2="888" stroke="#000" stroke-width="1"/><line x1="0" y1="891" x2="1000" y2="891" stroke="#000" stroke-width="1"/><line x1="0" y1="894" x2="1000" y2="894" stroke="#000" stroke-width="1"/><line x1="0" y1="897" x2="1000" y2="897" stroke="#000" stroke-width="1"/><line x1="0" y1="900" x2="1000" y2="900" stroke="#000" stroke-width="1"/><line x1="0" y1="903" x2="1000" y2="903" stroke="#000" stroke-width="1"/><line x1="0" y1="906" x2="1000" y2="906" stroke="#000" stroke-width="1"/><line x1="0" y1="909" x2="1000" y2="909" stroke="#000" stroke-width="1"/><line x1="0" y1="912" x2="1000" y2="912" stroke="#000" stroke-width="1"/><line x1="0" y1="915" x2="1000" y2="915" stroke="#000" stroke-width="1"/><line x1="0" y1="918" x2="1000" y2="918" stroke="#000" stroke-width="1"/><line x1="0" y1="921" x2="1000" y2="921" stroke="#000" stroke-width="1"/><line x1="0" y1="924" x2="1000" y2="924" stroke="#000" stroke-width="1"/><line x1="0" y1="927" x2="1000" y2="927" stroke="#000" stroke-width="1"/><line x1="0" y1="930" x2="1000" y2="930" stroke="#000" stroke-width="1"/><line x1="0" y1="933" x2="1000" y2="933" stroke="#000" stroke-width="1"/><line x1="0" y1="936" x2="1000" y2="936" stroke="#000" stroke-width="1"/><line x1="0" y1="939" x2="1000" y2="939" stroke="#000" stroke-width="1"/><line x1="0" y1="942" x2="1000" y2="942" stroke="#000" stroke-width="1"/><line x1="0" y1="945" x2="1000" y2="945" stroke="#000" stroke-width="1"/><line x1="0" y1="948" x2="1000" y2="948" stroke="#000" stroke-width="1"/><line x1="0" y1="951" x2="1000" y2="951" stroke="#000" stroke-width="1"/><line x1="0" y1="954" x2="1000" y2="954" stroke="#000" stroke-width="1"/><line x1="0" y1="957" x2="1000" y2="957" stroke="#000" stroke-width="1"/><line x1="0" y1="960" x2="1000" y2="960" stroke="#000" stroke-width="1"/><line x1="0" y1="963" x2="1000" y2="963" stroke="#000" stroke-width="1"/><line x1="0" y1="966" x2="1000" y2="966" stroke="#000" stroke-width="1"/><line x1="0" y1="969" x2="1000" y2="969" stroke="#000" stroke-width="1"/><line x1="0" y1="972" x2="1000" y2="972" stroke="#000" stroke-width="1"/><line x1="0" y1="975" x2="1000" y2="975" stroke="#000" stroke-width="1"/><line x1="0" y1="978" x2="1000" y2="978" stroke="#000" stroke-width="1"/><line x1="0" y1="981" x2="1000" y2="981" stroke="#000" stroke-width="1"/><line x1="0" y1="984" x2="1000" y2="984" stroke="#000" stroke-width="1"/><line x1="0" y1="987" x2="1000" y2="987" stroke="#000" stroke-width="1"/><line x1="0" y1="990" x2="1000" y2="990" stroke="#000" stroke-width="1"/><line x1="0" y1="993" x2="1000" y2="993" stroke="#000" stroke-width="1"/><line x1="0" y1="996" x2="1000" y2="996" stroke="#000" stroke-width="1"/><line x1="0" y1="999" x2="1000" y2="999" stroke="#000" stroke-width="1"/></g>
  <rect width="1000" height="1000" fill="url(#vig)"/>
</g>
<!-- wordmark -->
<text x="500" y="780" text-anchor="middle" font-family="Menlo,'Courier New',monospace" font-weight="900" font-size="170" letter-spacing="8" fill="url(#wm)" filter="url(#glowSoft)">SKALP</text>
<rect x="772" y="788" width="60" height="16" fill="#ffd54a" filter="url(#glowG)"/>
<text x="500" y="846" text-anchor="middle" font-family="Menlo,'Courier New',monospace" font-size="26" letter-spacing="11" fill="#5d6b91">READ · LONG · SHORT · SURVIVE</text>
</svg>